<svg width="150" height="150" viewBox="0 0 150 150" fill="none" xmlns="http://www.w3.org/2000/svg">
<path d="M150 54.8124H134.575V102.094H125.669V54.8124H110.281V47.0624H150V54.8124ZM107.175 102.094H77.0438V47.0624H105.981V54.8124H85.95V70.3999H104.406V78.1124H85.95V94.3874H107.175V102.094ZM65.25 102.094H55.5125L29.875 61.6437C29.2373 60.6349 28.6973 59.5675 28.2625 58.4562H28.0375C28.2375 59.6353 28.3375 62.1562 28.3375 66.0187V102.094H19.7313V47.0624H30.1L54.8813 86.5624C55.9229 88.1957 56.5958 89.3207 56.9 89.9374H57.05C56.8 88.4791 56.675 86.0103 56.675 82.5312V47.0562H65.25V102.094ZM10.8563 97.7624C10.8563 98.4433 10.7157 99.1176 10.4427 99.7466C10.1697 100.376 9.76952 100.947 9.2651 101.428C8.76068 101.909 8.16189 102.291 7.50298 102.551C6.84407 102.811 6.13795 102.944 5.425 102.944C4.71203 102.944 4.00605 102.809 3.34743 102.549C2.68882 102.288 2.09048 101.906 1.58663 101.424C1.08279 100.942 0.683324 100.37 0.411078 99.7409C0.138831 99.1115 -0.000856091 98.4371 3.9473e-06 97.7562C0.00173816 96.3831 0.574065 95.0668 1.59126 94.0965C2.60846 93.1262 3.98734 92.5812 5.425 92.5812C6.13795 92.5804 6.84407 92.7138 7.50298 92.9738C8.16189 93.2339 8.76068 93.6154 9.2651 94.0966C9.76952 94.5778 10.1697 95.1492 10.4427 95.7782C10.7157 96.4073 10.8563 97.0815 10.8563 97.7624Z" fill="#512BD4"/>
</svg>
