<svg width="150" height="150" viewBox="0 0 150 150" fill="none" xmlns="http://www.w3.org/2000/svg">
<g clip-path="url(#clip0_89_1420)">
<path d="M56.8537 42.489L57.2671 51.9879L50.6524 64.3778L40.3171 84.6145L38.25 101.547L45.6915 125.501L62.6415 135H88.2732L112.251 116.828L123 88.3315L98.1951 58.1828L91.1671 41.25L56.8537 42.489Z" fill="#ECEFF1"/>
<path d="M115.416 65.932C108.851 56.4454 103.516 50.671 100.644 38.7096C97.7714 26.7482 101.465 30.0479 99.0024 19.7363C97.7714 14.3743 95.7196 10.6622 93.6679 7.77495C91.2057 4.88772 88.3333 3.23787 86.6919 2.82541C82.9987 0.763103 74.3814 -2.53659 63.7123 3.23787C52.6328 9.01233 53.8639 21.3862 55.9156 46.5463C55.9156 48.1962 55.5053 50.2585 54.6846 51.9083C53.0432 55.6205 50.1707 58.9202 47.7086 61.8074C44.8362 65.932 41.9637 70.0566 39.912 74.5937C34.9878 84.0803 30.4739 96.0417 31.705 100.579C33.7567 100.166 59.6088 139.763 59.6088 140.588C61.2502 140.175 68.2261 140.175 74.3814 140.175C82.9987 139.763 87.9229 139.35 94.8989 141C94.8989 139.763 94.4886 138.525 94.4886 137.288C94.4886 134.813 94.8989 132.751 95.3093 129.864C95.7196 127.801 96.13 125.739 96.5403 123.264C92.4368 126.976 85.0505 131.101 78.0745 132.338C71.9193 133.576 61.6605 131.513 56.7363 125.326C57.1467 125.326 57.9674 125.326 58.3777 124.914C59.6088 124.502 60.8398 124.089 61.2502 123.264C62.4812 121.202 61.6605 119.14 60.8398 117.902C60.0191 116.665 53.8639 112.128 50.9914 109.653C48.119 107.178 46.4776 105.941 44.8362 104.291L41.5534 100.991C40.7327 100.166 40.3223 99.3414 39.912 98.9289C39.0913 96.8666 38.6809 94.3919 39.0913 91.0922C39.5016 86.5551 41.143 82.8429 43.1948 78.7183C44.0155 77.0685 46.0672 73.7688 46.0672 73.7688C46.0672 73.7688 39.0913 91.0922 42.7844 96.4542C42.7844 96.4542 43.1948 91.0922 44.8362 85.7302C46.0672 82.018 48.119 76.656 50.5811 73.7688C53.0432 70.8816 59.1984 60.1576 59.6088 53.5582C59.6088 50.6709 60.0191 47.7837 60.0191 45.7214C58.3777 44.0716 87.1022 39.947 88.7436 44.484C89.154 46.1339 94.8989 60.9825 98.1817 68.8193C99.8231 72.5314 101.875 75.8311 103.106 79.9557C104.337 84.4928 105.158 90.6797 105.158 96.8666C105.158 98.104 105.158 100.166 104.747 102.229C105.568 102.229 121.572 84.9053 102.696 70.4691C102.696 70.4691 114.185 75.8311 114.596 86.5551C115.006 95.2168 111.313 102.229 110.492 103.466C110.903 103.466 119.11 107.178 119.52 107.178C121.161 107.178 124.444 105.941 124.444 105.941C124.854 104.703 126.086 101.404 126.086 100.166C128.958 90.6797 121.982 75.4186 115.416 65.932Z" fill="#263238"/>
<path d="M63.1453 38.5612C66.1171 38.5612 68.5261 34.8549 68.5261 30.283C68.5261 25.7111 66.1171 22.0049 63.1453 22.0049C60.1736 22.0049 57.7645 25.7111 57.7645 30.283C57.7645 34.8549 60.1736 38.5612 63.1453 38.5612Z" fill="#ECEFF1"/>
<path d="M81.7712 39.3888C85.6573 39.3888 88.8076 35.1267 88.8076 29.869C88.8076 24.6113 85.6573 20.3491 81.7712 20.3491C77.8851 20.3491 74.7347 24.6113 74.7347 29.869C74.7347 35.1267 77.8851 39.3888 81.7712 39.3888Z" fill="#ECEFF1"/>
<path d="M66.1542 30.8486C65.8102 28.1271 64.2444 26.0836 62.6568 26.2842C61.0693 26.4849 60.0612 28.8538 60.4052 31.5753C60.7492 34.2967 62.315 36.3403 63.9026 36.1396C65.4901 35.9389 66.4982 33.5701 66.1542 30.8486Z" fill="#212121"/>
<path d="M81.3573 36.9056C83.6433 36.9056 85.4964 34.4966 85.4964 31.5248C85.4964 28.5531 83.6433 26.144 81.3573 26.144C79.0714 26.144 77.2183 28.5531 77.2183 31.5248C77.2183 34.4966 79.0714 36.9056 81.3573 36.9056Z" fill="#212121"/>
<path d="M136.598 122.542C134.94 121.713 132.037 120.469 129.55 116.738C128.306 114.666 128.721 108.862 126.648 106.375C125.404 104.716 123.746 105.545 123.331 105.545C119.6 106.375 110.894 112.178 105.089 105.545C104.26 104.716 103.017 103.473 100.944 103.473C98.8707 103.473 98.0415 104.302 97.2124 105.96C96.3832 107.618 96.3832 108.862 96.3832 113.007C96.3832 116.324 96.3832 120.055 95.9686 122.956C95.1394 130.004 93.8957 134.149 93.8957 138.295C93.8957 142.855 95.1394 145.756 96.7978 147C98.0415 148.244 100.114 149.073 104.675 149.073C109.235 149.073 112.137 147.415 115.039 144.513C117.112 142.44 118.771 141.611 124.575 137.466C129.135 134.564 136.183 130.833 137.427 129.589C138.256 128.76 139.5 128.346 139.5 125.858C139.5 123.786 137.842 122.956 136.598 122.542ZM53.2664 123.786C49.1205 117.153 48.7059 115.909 45.8038 111.764C43.3163 107.618 37.9267 99.7419 34.6101 99.7419C32.1225 99.7419 30.8788 100.985 29.2204 102.644C27.5621 104.302 25.9038 108.033 23.0017 110.105C20.5142 112.178 13.4662 111.764 11.8079 114.251C10.1496 116.738 13.4662 120.469 13.4662 126.687C13.4662 129.175 11.3933 130.833 10.9787 132.491C10.5641 134.564 10.1496 135.807 10.9787 137.466C12.6371 139.953 14.71 140.782 28.8059 143.684C36.2684 145.342 43.3163 149.487 47.8768 149.902C52.4372 150.316 60.3143 149.902 60.3143 138.709C60.7289 132.076 56.9976 130.418 53.2664 123.786ZM61.1435 48.7527C58.656 47.0946 56.583 45.4364 56.583 42.9491C56.583 40.4618 58.2414 39.6327 60.7289 37.56C61.1435 37.1455 65.7039 33 70.2643 33C74.8248 33 80.2144 35.9018 82.2873 36.7309C86.0186 37.56 89.7498 38.3891 89.3352 41.2909C88.9207 45.4364 88.5061 46.2655 84.3602 48.3382C81.4581 49.1673 76.0685 53.7273 72.3373 53.7273C70.6789 53.7273 68.1914 53.7273 66.5331 53.3127C65.2893 52.8982 63.2164 50.8255 61.1435 48.7527Z" fill="#FFC107"/>
<path d="M60.354 45.2C61.1834 46 62.4273 46.8 63.6713 47.2C64.5006 47.6 65.7446 48 65.7446 48H69.4765C71.5498 48 74.4524 47.2 77.355 45.6C80.2576 44.4 80.6722 43.6 82.7455 42.8C84.8188 41.6 86.8921 40.4 86.0628 40C85.2335 39.6 84.4041 40 81.5015 41.6C79.0136 43.2 76.9403 44 74.4524 45.2C73.2084 45.6 71.5498 46.4 70.3058 46.4H66.5739C65.3299 46.4 64.5006 46 63.2566 45.6C62.4273 45.2 62.0127 44.8 61.598 44.8C60.7687 44.4 59.1101 42.8 58.2808 42.4C58.2808 42.4 57.4514 42.4 57.8661 42.8L60.354 45.2ZM72.7937 36.4C73.2084 37.2 74.0377 37.2 74.4524 37.6C74.867 38 75.2817 38 75.2817 38C75.6963 37.6 75.2817 36.8 74.867 36.8C74.867 36 72.7937 36 72.7937 36.4ZM66.1592 37.2C66.1592 37.6 66.9886 38 66.9886 37.6C67.4032 37.2 67.8179 36.8 68.2325 36.8C69.0618 36.4 68.6472 36 67.4032 36C66.5739 36.4 66.5739 36.8 66.1592 37.2Z" fill="#634703"/>
<path d="M105.917 110.564V111.853C106.75 113.571 108.833 114 110.5 114C113 114 115.5 112.282 116.75 110.564C116.75 110.135 117.167 109.705 117.583 109.276C118.417 107.988 118.833 107.129 119.25 106.699C119.25 106.699 118.833 106.27 118.833 105.84C118.417 104.982 117.167 104.123 115.5 103.693C114.25 103.264 112.167 102.834 111.333 102.834C107.583 102.405 105.5 103.693 104.25 104.981C104.25 104.981 104.667 104.982 104.667 105.411C105.5 106.27 105.917 107.129 105.917 108.417C106.333 109.276 105.917 109.705 105.917 110.564Z" fill="#455A64"/>
</g>
<defs>
<clipPath id="clip0_89_1420">
<rect width="150" height="150" fill="white"/>
</clipPath>
</defs>
</svg>
