<svg width="150" height="150" viewBox="0 0 150 150" fill="none" xmlns="http://www.w3.org/2000/svg">
<path d="M124.871 104.64C126.289 105.208 127.511 106.176 128.388 107.426C129.17 108.601 129.733 110.018 130.077 111.675C130.264 112.644 130.483 113.551 130.733 114.395C131.196 115.975 131.889 117.479 132.787 118.859C133.225 119.541 133.813 120.298 134.551 121.129C135.176 121.817 135.739 122.696 136.239 123.765C136.695 124.728 136.942 125.776 136.961 126.842C136.991 127.865 136.684 128.87 136.089 129.702C135.47 130.501 134.725 131.195 133.885 131.757C132.759 132.538 131.587 133.223 130.367 133.811C129.148 134.392 127.929 135.002 126.709 135.64C124.886 136.507 123.143 137.537 121.504 138.716C120.034 139.792 118.568 141.161 117.105 142.825C115.4 144.737 113.425 146.39 111.242 147.73C110.126 148.434 108.917 148.977 107.65 149.343C106.43 149.687 105.211 149.906 103.992 150C101.159 150 98.8141 149.512 96.9569 148.537C95.0998 147.561 93.4865 145.779 92.117 143.19C91.7293 142.452 91.3385 141.987 90.9446 141.793C90.3353 141.538 89.6951 141.364 89.0405 141.277L81.6211 140.695C79.1824 140.508 76.6937 140.411 74.1549 140.405C72.0434 140.396 69.9348 140.565 67.8518 140.911C65.7007 141.255 63.5746 141.671 61.4736 142.159C61.0359 142.259 60.5981 142.624 60.1604 143.256C59.6018 144.011 58.9872 144.722 58.322 145.385C57.409 146.256 56.344 146.953 55.1798 147.439C53.5201 148.082 51.7536 148.403 49.9741 148.387C48.3608 148.387 46.6255 148.218 44.7683 147.88C43.0301 147.581 41.3496 147.011 39.7877 146.192C36.9671 144.752 33.958 143.717 30.8489 143.115C27.9162 142.578 24.8146 142.09 21.5442 141.652C20.4581 141.518 19.3808 141.321 18.3176 141.061C17.3364 140.832 16.4113 140.408 15.5975 139.814C14.853 139.265 14.2329 138.565 13.7778 137.76C13.2841 136.733 13.0307 135.607 13.0369 134.467C13.0369 132.948 13.2338 131.481 13.6278 130.068C14.0217 128.655 14.2406 127.167 14.2844 125.603C14.2844 124.522 14.2124 123.471 14.0686 122.452C13.92 121.356 13.8198 120.255 13.7685 119.15C13.7685 116.668 14.3563 114.836 15.5319 113.654C16.7012 112.484 18.4114 111.556 20.6625 110.868C21.662 110.564 22.6035 110.094 23.4483 109.48C24.2281 108.903 24.9619 108.266 25.6432 107.576C26.3367 106.87 26.9734 106.111 27.5472 105.306C28.135 104.468 28.7947 103.636 29.5263 102.811C29.6826 102.629 29.7631 102.394 29.7515 102.154C29.7515 101.56 29.7264 100.997 29.6764 100.466L29.5263 98.7025C29.5263 95.3883 30.0391 92.0429 31.0646 88.6662C32.0964 85.2958 33.4408 81.9972 35.0979 78.7706C36.7537 75.5529 38.6147 72.4449 40.6694 69.466C42.7204 66.4895 44.7465 63.7287 46.7475 61.1837C49.4546 57.7819 51.6072 53.9737 53.1256 49.9C54.5389 45.9917 55.2705 41.7396 55.3205 37.1436C55.3205 35.1989 55.2236 33.2729 55.0297 31.3657C54.8309 29.418 54.7338 27.4612 54.739 25.5034C54.739 21.5889 55.1767 18.0715 56.0521 14.9512C56.9338 11.8247 58.3032 9.13582 60.1604 6.88469C62.9462 3.508 64.4376 2.9546 67.4109 1.82904C70.3999 0.703477 73.9673 0.0937969 78.1131 0C83.0531 0 86.9895 0.978614 89.9222 2.93584C92.8486 4.88682 95.0935 7.4506 96.6568 10.6272C98.2201 13.7975 99.2206 17.3399 99.6583 21.2544C100.109 25.1563 100.356 29.1114 100.399 33.1197V34.3672C100.399 36.3744 100.424 38.1566 100.474 39.7136C100.555 42.8801 101.276 45.9974 102.594 48.8776C103.282 50.3908 104.307 52.026 105.671 53.7831C108.016 56.8722 110.411 59.9769 112.856 63.0972C115.294 66.2237 117.514 69.4441 119.515 72.7583C121.522 76.0849 123.161 79.5554 124.43 83.1697C125.699 86.784 126.359 90.6922 126.409 94.8943C126.422 98.2073 125.902 101.491 124.871 104.64ZM63.3964 28.2891C64.0718 28.2891 64.6345 28.458 65.0848 28.7956C65.5412 29.1647 65.8936 29.6464 66.1071 30.1932C66.3326 30.76 66.5022 31.3475 66.6136 31.9472C66.7137 32.535 66.7637 33.1478 66.7637 33.7856C66.7734 34.1881 66.6966 34.5879 66.5386 34.9581C66.3718 35.2655 66.1491 35.539 65.882 35.7648L65.0003 36.4964C64.6907 36.7677 64.3993 37.0591 64.128 37.3687C63.785 37.9235 63.3034 38.3794 62.7305 38.6912C62.1484 39.0265 61.5848 39.3929 61.0421 39.7886C60.5223 40.1653 60.033 40.5824 59.5789 41.0361C59.3499 41.2797 59.1735 41.5678 59.0605 41.8824C58.9476 42.1971 58.9005 42.5316 58.9223 42.8652C58.9223 43.3029 59.1412 43.6687 59.5789 43.9626C60.6741 44.6498 61.542 45.645 62.0739 46.8234C62.5679 47.949 63.1056 49.0495 63.6872 50.1251C64.2687 51.1881 65.0253 52.0917 65.9571 52.8358C66.8888 53.5674 68.327 53.9332 70.2717 53.9332H70.7219C72.6729 53.8394 74.5301 53.3267 76.2935 52.395C78.0506 51.4695 79.8077 50.4909 81.5649 49.4591C81.8755 49.2975 82.1949 49.1535 82.5216 49.0276C82.8606 48.9022 83.1797 48.7285 83.4689 48.5118L88.8154 44.3378C88.9071 44.023 88.9822 43.7037 89.0405 43.3811L89.1906 42.3493C89.2045 41.8833 89.0734 41.4244 88.8154 41.0361C88.5755 40.6959 88.2807 40.3979 87.9431 40.1545C87.568 39.8988 87.1427 39.7261 86.6956 39.648C86.2493 39.555 85.8104 39.4296 85.3824 39.2728C84.2142 39.0293 83.0971 38.585 82.0807 37.9596C81.0712 37.3379 79.987 36.8462 78.8541 36.4964C78.6665 36.4464 78.5196 36.2994 78.4133 36.0555C78.3019 35.7666 78.2048 35.4724 78.1225 35.1738C78.015 34.8668 77.9891 34.5371 78.0475 34.2171C78.0984 33.9713 78.0722 33.7158 77.9725 33.4855C77.9725 32.904 78.0225 32.2943 78.1225 31.6565C78.2337 31.0133 78.4558 30.3944 78.7791 29.8274C79.0602 29.3029 79.4621 28.8528 79.9516 28.5143C80.5279 28.1722 81.1854 27.9909 81.8556 27.989C83.3751 27.989 84.4757 28.5518 85.1573 29.6773C85.8451 30.8029 86.2109 32.0223 86.2547 33.3354C86.2658 33.919 86.1405 34.4971 85.8889 35.0238C85.6452 35.5269 85.517 36.0781 85.5137 36.6371C85.5137 37.031 85.6388 37.2999 85.8889 37.4437C86.1879 37.597 86.5119 37.6955 86.8456 37.7345C87.9712 37.7345 88.7028 37.4687 89.0405 36.9372C89.4364 36.1929 89.6365 35.3602 89.622 34.5173C89.622 33.3917 89.5282 32.1442 89.3406 30.7748C89.1583 29.4491 88.759 28.1625 88.1588 26.9666C87.6052 25.8466 86.8335 24.8484 85.8889 24.0308C84.8728 23.219 83.5956 22.8055 82.2965 22.8677C79.764 22.8677 77.9318 23.5024 76.8 24.7718C75.6744 26.0349 75.0898 27.939 75.046 30.484C75.046 31.2156 75.0929 31.9472 75.1867 32.6788C75.2805 33.4105 75.3305 34.1452 75.3368 34.8831C75.3368 35.1269 75.3117 35.2489 75.2617 35.2489C75.1091 35.2174 74.961 35.1669 74.8209 35.0988L73.9486 34.733C73.5876 34.5882 73.2179 34.4661 72.8418 34.3672C72.2189 34.2121 71.5708 34.1866 70.9377 34.2921C70.5488 34.3416 70.1572 34.3667 69.7652 34.3672C69.0774 34.3672 68.7335 34.2453 68.7335 34.0014C68.7335 33.2698 68.6866 32.3412 68.5928 31.2156C68.499 30.09 68.2551 28.9645 67.8611 27.8389C67.5328 26.8378 67.0381 25.8993 66.3979 25.0625C65.8101 24.3309 64.9315 23.9401 63.7622 23.8901C62.9741 23.8689 62.2093 24.1586 61.633 24.6967C61.0393 25.2615 60.5221 25.9016 60.0948 26.6008C59.6453 27.3629 59.3698 28.2149 59.2881 29.0958C59.2109 29.8798 59.1139 30.6616 58.9973 31.4407C59.04 32.7343 59.2609 34.0157 59.6539 35.2489C59.904 36.0305 60.1729 36.7152 60.4606 37.303C60.7545 37.8846 61.0984 38.1753 61.4923 38.1753C61.73 38.1753 62.0457 38.0065 62.4397 37.6688C62.8336 37.3249 63.0306 37.006 63.0306 36.7121C63.0306 36.562 62.9556 36.4651 62.8055 36.4213C62.6621 36.3788 62.5141 36.3536 62.3646 36.3463C62.027 36.3463 61.7331 36.1743 61.4829 35.8304C61.2353 35.4687 61.0395 35.074 60.9014 34.658L60.4606 33.2698C60.1648 32.0044 60.3486 30.6744 60.9764 29.5366C61.4142 28.7487 62.2208 28.3329 63.3964 28.2891ZM47.4134 142.384C48.589 142.384 49.7396 142.284 50.8651 142.084C51.9777 141.886 53.0454 141.489 54.0167 140.911C54.95 140.379 55.7115 139.592 56.2116 138.641C56.7568 137.546 57.0576 136.346 57.0933 135.124C57.0963 134.251 56.9471 133.385 56.6524 132.563C56.3499 131.726 55.9299 130.937 55.4049 130.218C54.8216 129.304 54.1858 128.424 53.5008 127.583C52.8156 126.738 52.1798 125.855 51.5968 124.937L48.8766 120.904C48.0012 119.591 47.1258 118.2 46.2503 116.73C45.4785 115.483 44.7435 114.213 44.0461 112.922C43.3266 111.606 42.4917 110.357 41.5511 109.189C40.956 108.445 40.2689 107.78 39.5063 107.21C38.7228 106.622 37.7657 106.312 36.7862 106.328C35.765 106.317 34.7758 106.684 34.0098 107.36C33.1281 108.112 32.318 108.944 31.5899 109.846C30.7302 110.864 29.7993 111.82 28.8041 112.706C27.7786 113.638 26.4592 114.37 24.8459 114.901C23.7536 115.193 22.749 115.746 21.9194 116.515C21.2316 117.202 20.8877 118.253 20.8877 119.666C20.8877 120.642 20.9627 121.617 21.1128 122.593C21.2566 123.568 21.3535 124.547 21.4035 125.528C21.4035 126.842 21.2066 128.086 20.8126 129.262C20.4409 130.372 20.2447 131.533 20.2311 132.704C20.2311 134.03 20.6938 134.958 21.6193 135.49C22.5572 136.034 23.6078 136.399 24.7708 136.587C26.2403 136.837 27.6348 137.034 28.9542 137.178C30.2673 137.328 31.5617 137.547 32.8374 137.835C34.1005 138.128 35.3699 138.447 36.6455 138.791C37.9149 139.129 39.2593 139.667 40.6788 140.405C40.9664 140.548 41.4042 140.717 41.992 140.911L43.9711 141.568C44.7027 141.818 45.3874 142.015 46.0252 142.159C46.4817 142.268 46.9457 142.344 47.4134 142.384ZM74.2393 133.586C75.6088 133.586 77.0751 133.439 78.6384 133.145C81.8289 132.552 84.914 131.49 87.793 129.993C89.1341 129.309 90.4089 128.502 91.6011 127.583C91.7217 127.451 91.8227 127.302 91.9013 127.142C91.9951 126.953 92.0674 126.755 92.117 126.551V126.476C92.4047 125.4 92.6485 124.228 92.8486 122.958C93.0506 121.668 93.2226 120.373 93.3645 119.075C93.5064 117.777 93.6784 116.482 93.8804 115.192C94.068 113.923 94.2368 112.678 94.3869 111.459C94.587 110.146 94.8309 108.876 95.1185 107.651C95.4124 106.431 95.8032 105.281 96.291 104.199C96.7675 103.134 97.4387 102.167 98.2701 101.348C99.2288 100.417 100.315 99.6271 101.497 99.0026V98.8526L101.422 98.6368C101.443 98.1402 101.595 97.658 101.863 97.2392C102.191 96.7008 102.558 96.1867 102.96 95.701C103.353 95.21 103.825 94.7883 104.358 94.4535C104.847 94.1635 105.362 93.9186 105.896 93.7219C105.6 92.5433 105.281 91.3706 104.939 90.2045C104.6 89.0438 104.306 87.8705 104.057 86.6871C103.818 85.1892 103.527 83.7001 103.185 82.2224C102.912 81.0763 102.568 79.9485 102.153 78.8457C101.735 77.7703 101.167 76.7598 100.465 75.8442C99.7396 74.8624 98.8391 73.69 97.7636 72.3268C97.3477 71.8764 96.977 71.3863 96.6568 70.8636C96.4104 70.2794 96.2646 69.6579 96.2253 69.0251C96.1116 68.3832 95.9644 67.7477 95.7845 67.1211C95.1206 64.7472 94.3634 62.4005 93.5146 60.0863C93.0614 58.8526 92.5223 57.6522 91.9013 56.4939C91.4018 55.5681 90.8635 54.6637 90.288 53.7831C89.8002 53.0515 89.2875 52.6857 88.7497 52.6857C87.5741 52.6857 86.1797 53.1516 84.5664 54.0833C82.9593 55.0088 81.2522 56.0343 79.4451 57.1598C77.6379 58.2854 75.8777 59.3359 74.1643 60.3114C72.4572 61.2869 70.9189 61.7496 69.5495 61.6996C68.088 61.6986 66.6687 61.2101 65.5162 60.3114C64.2722 59.3671 63.1394 58.2847 62.1395 57.0848C61.114 55.8654 60.2605 54.8149 59.5789 53.9332C58.8973 53.0515 58.3845 52.5638 58.0406 52.47C57.6529 52.47 57.4341 52.7608 57.384 53.3423C57.3358 54.0009 57.3108 54.661 57.309 55.3214V56.5689C57.309 56.8628 57.259 57.0598 57.1589 57.1598C56.6211 58.2854 56.0365 59.3828 55.4049 60.4521C54.7733 61.5276 54.1387 62.6282 53.5008 63.7538C52.2334 65.9151 51.5272 68.3593 51.4467 70.8636C51.4467 71.5952 51.4967 72.3268 51.5968 73.0584C51.6906 73.79 51.9344 74.4997 52.3284 75.1876L52.1783 75.469C51.802 75.992 51.3849 76.4845 50.9308 76.9416C50.4651 77.4094 50.0501 77.925 49.6927 78.4799C47.8993 81.1307 46.6055 84.087 45.8751 87.203C45.1435 90.3295 44.7527 93.503 44.7027 96.7234C44.7027 97.5613 44.7527 98.393 44.8528 99.2184C44.9528 100.05 45.0028 100.882 45.0028 101.713L44.9278 102.52L44.8528 103.327C45.8954 103.444 46.8985 103.794 47.7886 104.349C48.9142 104.987 50.1335 105.794 51.4467 106.769C52.7598 107.745 54.0073 108.87 55.1892 110.146C56.3585 111.409 57.4809 112.653 58.5565 113.879C59.632 115.098 60.4137 116.318 60.9014 117.537C61.3892 118.756 61.7049 119.757 61.8488 120.538C61.8762 121.106 61.7863 121.673 61.5845 122.204C61.3828 122.735 61.0736 123.218 60.6763 123.624C59.8286 124.437 58.8359 125.082 57.7498 125.528C58.5815 126.992 59.607 128.236 60.8264 129.262C62.0457 130.293 63.3651 131.125 64.7846 131.757C66.2041 132.388 67.7423 132.851 69.3994 133.145C71.0565 133.439 72.6698 133.586 74.2393 133.586ZM103.626 143.997C104.651 143.997 105.652 143.85 106.627 143.556C108.103 143.126 109.509 142.485 110.801 141.652C112.071 140.82 113.243 139.792 114.319 138.566C116.872 135.632 119.988 133.24 123.483 131.531L125.903 130.434C126.735 130.077 127.541 129.66 128.313 129.186C128.871 128.83 129.39 128.415 129.861 127.948C130.095 127.719 130.281 127.444 130.406 127.141C130.532 126.838 130.595 126.513 130.593 126.185C130.592 125.808 130.515 125.435 130.367 125.088C130.191 124.698 129.971 124.33 129.711 123.99C129.041 123.06 128.406 122.106 127.807 121.129C127.264 120.241 126.797 119.309 126.409 118.344L125.237 115.417C124.825 114.339 124.481 113.236 124.205 112.115C124.099 111.77 123.927 111.448 123.698 111.168C123.227 110.463 122.583 109.891 121.828 109.505C121.073 109.119 120.231 108.933 119.384 108.964C118.509 108.959 117.648 109.186 116.889 109.62L114.394 111.018C113.526 111.501 112.647 111.963 111.758 112.406C110.894 112.84 109.939 113.065 108.972 113.063C108.106 113.109 107.251 112.854 106.552 112.341C105.87 111.813 105.318 111.136 104.939 110.361C104.517 109.582 104.15 108.773 103.842 107.941L102.96 105.522C102.576 106.148 102.137 106.738 101.647 107.285C101.15 107.848 100.753 108.492 100.474 109.189C99.8365 110.652 99.4457 112.287 99.3019 114.095C99.058 116.927 98.7391 119.688 98.3451 122.377C97.9438 125.122 97.2843 127.822 96.3754 130.443C96.1188 131.282 95.9214 132.138 95.7845 133.004C95.6407 133.902 95.5405 134.807 95.4843 135.715C95.4843 138.11 96.2191 140.089 97.6886 141.652C99.158 143.215 101.137 143.997 103.626 143.997Z" fill="#4D4D4D"/>
</svg>
