<svg width="150" height="150" viewBox="0 0 150 150" fill="none" xmlns="http://www.w3.org/2000/svg">
<g clip-path="url(#clip0_216_328)">
<g clip-path="url(#clip1_216_328)">
<path d="M108.721 0.211306C123.992 0.38801 136.651 6.1625 145.327 16.9125C148.605 20.9738 151.41 29.9529 146.16 49.6625C142.913 61.8516 137.274 74.8006 130.339 86.1556C132.176 86.1056 134.694 85.8473 138.088 85.1683C140.034 84.7792 141.679 84.6909 143.116 84.8988C146.163 85.3403 148.519 87.1802 149.419 89.8217C152.042 97.5238 140.898 103.229 137.421 104.793C133.02 106.776 125.854 107.981 119.994 107.722L119.722 107.704L118.67 107.615L118.576 108.388C118.531 108.765 118.483 109.16 118.432 109.575C118.039 124.218 115.867 133.513 111.397 139.683C106.67 146.21 100.134 148.032 94.3806 149.228C92.7666 149.563 90.9264 149.808 88.9978 149.808C85.1517 149.808 80.9519 148.833 77.4802 145.656C74.1276 142.588 72.8093 138.671 72.0212 136.331C71.8982 135.964 71.7818 135.617 71.6951 135.39C70.1154 131.256 69.582 125.347 69.2673 117.748C69.2211 116.625 69.1863 115.423 69.1511 114.198C69.13 113.442 69.1048 112.567 69.072 111.651C63.7617 113.909 57.5374 114.311 50.8923 112.701C49.0484 112.253 47.2021 111.499 45.6921 110.576C44.5033 109.848 43.6068 109.064 42.9353 108.276C37.6381 112.554 32.6019 111.927 29.8298 111.032C24.884 109.432 20.4775 104.977 16.3601 97.4115C13.4568 92.0763 10.6503 85.1314 8.01831 76.7689C3.43868 62.2202 0.530451 46.8794 0.270266 41.8373C-0.548874 25.9566 3.88003 14.5857 13.4343 8.04138C21.3246 2.63634 32.1119 0.976143 45.4959 3.10681C51.1864 4.01249 56.114 5.43203 59.1843 6.43884C64.7301 3.24744 71.2205 1.69442 78.5662 1.80799C82.4847 1.86935 86.2198 2.20103 89.6931 2.79529C93.4237 1.67372 100.575 0.11478 108.721 0.211306ZM108.475 4.18884C98.8843 4.08437 90.7806 6.46485 89.2097 7.13416C85.9016 6.33648 82.2951 5.84607 78.3689 5.78357C71.169 5.67054 64.9454 7.34301 59.7927 10.7504C57.5545 9.94242 51.77 8.01662 44.696 6.9115C32.4664 5.00241 22.7474 6.44905 15.8123 11.2133C7.53738 16.8985 3.71681 27.0609 4.45679 41.4174C4.70581 46.2475 7.54429 61.1072 12.0232 75.3373C17.9189 94.0666 24.3281 104.67 31.071 106.851C31.8603 107.106 32.7705 107.284 33.7742 107.284C36.2339 107.284 39.2498 106.209 42.3875 102.551C46.2145 98.0993 50.1729 93.7551 54.2585 89.5248C56.9093 90.9043 59.8222 91.675 62.8005 91.7523C62.8068 91.8279 62.8136 91.9031 62.821 91.9779C62.3084 92.5708 61.8064 93.1729 61.3152 93.7826C59.2515 96.3229 58.8212 96.852 52.1785 98.1781C50.2885 98.5566 45.2711 99.5592 45.197 102.97C45.1173 106.697 51.1285 108.263 51.8142 108.429C54.2012 109.009 56.5011 109.294 58.6941 109.294C64.0279 109.294 68.7222 107.594 72.4734 104.305C72.358 117.593 72.9296 130.686 74.575 134.675C75.9227 137.941 79.2144 145.922 89.6121 145.921C91.1378 145.921 92.8173 145.75 94.6648 145.366C105.517 143.11 110.23 138.458 112.052 128.204C113.028 122.724 114.702 109.639 115.489 102.62C117.151 103.122 119.291 103.352 121.603 103.352C126.427 103.352 131.993 102.358 135.483 100.787C139.404 99.0205 146.479 94.6878 145.196 90.9232C144.532 88.9751 142.393 88.3487 138.841 89.0599C128.291 91.1712 124.513 89.7084 123.272 88.8226C131.472 76.709 138.218 62.0655 141.857 48.4037C143.581 41.9322 144.533 35.9216 144.611 31.0228C144.697 25.6464 143.753 21.6952 141.805 19.2816C133.953 9.5515 122.427 4.33203 108.475 4.18884ZM78.2976 9.97009C94.1999 10.2224 104.398 18.136 110.153 24.7308C115.112 30.4132 117.797 36.1385 118.869 39.226C110.809 38.4311 105.328 39.9733 102.55 43.8256C96.5045 52.2051 105.857 68.4691 110.351 76.2855C111.176 77.7178 111.887 78.9557 112.111 79.4818C113.575 82.9215 115.47 85.2178 116.853 86.8939C117.277 87.4076 117.689 87.906 118.002 88.3412C115.561 89.0236 111.175 90.6006 111.575 98.4818C111.253 102.437 108.962 120.951 107.798 127.493C106.261 136.135 102.98 139.352 93.7595 141.27C84.1996 143.256 80.8144 138.527 78.5837 133.12C77.1441 129.629 76.4371 113.886 76.9392 96.5013C76.9456 96.2703 76.911 96.0473 76.8455 95.8373C76.7869 95.4223 76.6981 95.0114 76.5789 94.6088C75.8324 92.0792 74.0125 89.9626 71.8298 89.0853C70.9626 88.737 69.371 88.0983 67.4587 88.5726C67.8666 86.9431 68.5736 85.1024 69.3406 83.1097L69.6628 82.2719C70.0249 81.3271 70.4793 80.3481 70.9597 79.3119C73.5572 73.7164 77.1144 66.0519 73.2537 48.7377C71.8075 42.2527 66.9784 39.0859 59.658 39.8217C55.2693 40.262 51.2535 41.9786 49.2507 42.9633C48.8201 43.1746 48.4263 43.3796 48.0584 43.5785C48.6173 37.0444 50.7292 24.833 58.6287 17.1068C63.6027 12.2432 70.2269 9.84055 78.2976 9.97009ZM66.946 93.7572C68.3587 92.2231 69.0056 92.4829 70.1775 92.9545C71.1272 93.3353 72.0525 94.4898 72.4275 95.7601C72.605 96.3601 72.804 97.4988 72.1521 98.3851C66.6466 105.86 58.6236 105.764 52.8621 104.366C51.675 104.078 50.6076 103.579 49.9812 103.164C50.5045 102.926 51.436 102.601 53.0505 102.279C60.8649 100.719 62.0723 99.6173 64.7078 96.3724C65.3118 95.6282 65.9967 94.7852 66.9451 93.7582L66.946 93.7572ZM18.3015 14.6342C29.671 6.81607 48.3636 11.4962 55.8748 13.8695C55.767 13.9728 55.6542 14.0692 55.5476 14.1742C43.2221 26.2445 43.5142 46.867 43.5447 48.1283C43.5435 48.6146 43.5859 49.3033 43.6433 50.2504C43.8554 53.7191 44.2507 60.1749 43.196 67.4857C42.2164 74.2795 44.3755 80.9293 49.1199 85.7299C49.6066 86.2218 50.1191 86.6899 50.6541 87.1322C48.5424 89.3254 43.9525 94.1748 39.0671 99.8734C35.6101 103.904 33.2224 103.132 32.4373 102.878C27.3221 101.224 21.387 90.7394 16.1541 74.1146C11.6259 59.7294 8.97906 45.2636 8.76929 41.2074C8.10846 28.3793 11.3155 19.4386 18.3015 14.6342ZM120.433 92.0082C120.617 92.1532 120.818 92.2966 121.038 92.4379C124.56 94.6923 130.843 94.936 139.714 93.1605L139.811 93.141C138.615 94.2256 136.567 95.6813 133.665 96.9886C131.169 98.1119 126.991 98.9549 123.023 99.1361C118.641 99.3349 116.41 98.6598 115.885 98.2445C115.639 93.3334 117.523 92.8199 119.518 92.2767C119.832 92.1915 120.138 92.1082 120.433 92.0082ZM47.8796 48.7045C49.6802 47.1562 58.0246 42.8209 63.9753 44.1429C66.6906 44.7458 68.3451 46.5393 69.033 49.6234C72.5931 65.5909 69.5042 72.2458 67.0222 77.5941C66.5107 78.6958 66.0275 79.7375 65.615 80.8148L65.2947 81.6478C64.485 83.7534 63.7314 85.7117 63.2644 87.5707C59.1993 87.5592 55.245 85.8745 52.238 82.8314C48.4145 78.9621 46.6773 73.5805 47.4724 68.0648C48.5856 60.3423 48.1748 53.6159 47.9539 50.0023C47.9228 49.4968 47.8955 49.0538 47.8796 48.7045ZM109.014 8.38513C121.515 8.65275 131.403 13.1877 138.404 21.8627C143.774 28.5167 137.861 58.7936 120.744 84.9135C120.572 84.7013 120.399 84.4894 120.225 84.2787L120.009 84.016C124.432 76.9326 123.567 69.9239 122.797 63.7103C122.48 61.1603 122.181 58.7511 122.258 56.4886C122.336 54.0913 122.663 52.0347 122.979 50.0463C123.368 47.5958 123.763 45.0598 123.654 42.0707C123.735 41.7571 123.769 41.3864 123.726 40.9467C123.448 38.0802 120.073 29.5014 113.194 21.7367C109.431 17.4895 103.943 12.7363 96.4509 9.53064C99.6735 8.88293 104.08 8.27892 109.014 8.38513ZM106.088 46.226C107.427 44.3715 110.825 42.4649 119.353 43.4916C119.318 45.5637 119.023 47.445 118.712 49.4086C118.376 51.5205 118.028 53.7043 117.941 56.3549C117.855 58.9342 118.187 61.6158 118.509 64.2094C119.158 69.448 119.825 74.8419 117.246 80.1635C116.818 79.4272 116.437 78.666 116.103 77.8851C115.783 77.1317 115.087 75.9214 114.123 74.2465C110.373 67.726 101.593 52.4566 106.088 46.226ZM63.3259 46.3207C61.7557 46.1088 60.3336 46.305 59.614 46.8334C59.2097 47.1305 59.0845 47.4754 59.0505 47.7123C58.9606 48.3399 59.4133 49.034 59.6921 49.392C60.4808 50.4056 61.633 51.1018 62.7732 51.2553C62.9383 51.2776 63.1028 51.2888 63.2664 51.2885C65.1676 51.2885 66.897 49.853 67.0496 48.7933C67.24 47.4661 65.2531 46.5803 63.3259 46.3207ZM115.347 46.3627C115.197 45.3227 113.289 45.0257 111.477 45.2699C109.668 45.5142 107.914 46.3065 108.06 47.349C108.177 48.1598 109.687 49.5443 111.474 49.5443C111.625 49.5443 111.778 49.5345 111.931 49.514C113.124 49.3538 114 48.619 114.416 48.1957C115.049 47.5502 115.415 46.8303 115.347 46.3627Z" fill="#4D4D4D"/>
</g>
</g>
<defs>
<clipPath id="clip0_216_328">
<rect width="150" height="150" fill="white"/>
</clipPath>
<clipPath id="clip1_216_328">
<rect width="150" height="150" fill="white"/>
</clipPath>
</defs>
</svg>
