<svg width="150" height="150" viewBox="0 0 150 150" fill="none" xmlns="http://www.w3.org/2000/svg">
<g clip-path="url(#clip0_216_330)">
<g clip-path="url(#clip1_216_330)">
<path d="M149.419 89.8215C148.519 87.18 146.163 85.3403 143.116 84.8988C141.68 84.6908 140.034 84.7795 138.087 85.1687C134.694 85.8477 132.176 86.1062 130.338 86.1562C137.274 74.8011 142.914 61.8522 146.16 49.663C151.41 29.9534 148.605 20.9744 145.327 16.913C136.651 6.16301 123.993 0.388014 108.722 0.211309C100.576 0.114719 93.4242 1.67438 89.6936 2.79597C86.2201 2.20165 82.4854 1.86983 78.5666 1.80847C71.2207 1.69483 64.7303 3.24767 59.1844 6.43915C56.1141 5.43233 51.1864 4.01301 45.4957 3.10733C32.1117 0.97665 21.3246 2.63688 13.4344 8.04199C3.8801 14.5863 -0.549 25.9568 0.270141 41.8374C0.530297 46.8795 3.43889 62.2204 8.01858 76.7693C10.6506 85.1318 13.4573 92.0761 16.3606 97.4113C20.478 104.977 24.8836 109.432 29.8295 111.032C32.6016 111.927 37.6383 112.554 42.9358 108.276C43.6073 109.065 44.5032 109.848 45.692 110.576C47.202 111.499 49.0483 112.254 50.8922 112.701C57.5373 114.312 63.7617 113.909 69.0721 111.651C69.1049 112.567 69.1301 113.442 69.1512 114.198C69.1864 115.423 69.2215 116.625 69.2678 117.749C69.5824 125.348 70.1157 131.256 71.6953 135.39C71.7821 135.618 71.8987 135.964 72.0217 136.332C72.8098 138.672 74.1276 142.589 77.4803 145.656C80.952 148.834 85.1514 149.808 88.9975 149.808C90.9264 149.808 92.7668 149.563 94.3811 149.228C100.135 148.032 106.67 146.21 111.397 139.683C115.867 133.512 118.039 124.219 118.433 109.575C118.483 109.161 118.531 108.765 118.576 108.389L118.669 107.615L119.722 107.704L119.994 107.722C125.854 107.981 133.02 106.776 137.421 104.794C140.899 103.229 152.043 97.5238 149.419 89.8215Z" fill="black"/>
<path d="M139.398 91.3193C121.972 94.8051 120.774 89.084 120.774 89.084C139.172 62.6107 146.864 29.0068 140.227 20.7823C122.119 -1.65234 90.7746 8.95789 90.2513 9.23289L90.0832 9.26244C86.6402 8.56925 82.7877 8.15675 78.457 8.088C70.5726 7.963 64.5914 10.0925 60.0527 13.43C60.0527 13.43 4.13669 -8.90745 6.73766 41.5232C7.29079 52.2516 22.5955 122.701 40.8498 101.422C47.5218 93.6409 53.9689 87.0619 53.9689 87.0619C57.1705 89.1244 61.0037 90.1767 65.022 89.7988L65.3343 89.542C65.2371 90.5079 65.2816 91.4528 65.4592 92.5715C60.7564 97.6664 62.1386 98.5607 52.7379 100.437C43.2252 102.339 48.8133 105.723 52.4619 106.608C56.8851 107.68 67.1179 109.199 74.032 99.8136L73.7566 100.885C75.5988 102.316 76.8925 110.193 76.6758 117.335C76.459 124.476 76.3142 129.378 77.7656 133.208C79.2181 137.037 80.6648 145.654 93.0234 143.086C103.349 140.94 108.701 135.379 109.445 126.103C109.973 119.509 111.169 120.484 111.244 114.588L112.203 111.797C113.309 102.858 112.379 99.9738 118.741 101.315L120.288 101.447C124.969 101.653 131.098 100.716 134.695 99.0954C142.44 95.6102 147.034 89.7903 139.397 91.3193H139.398Z" fill="#336791"/>
<path d="M63.3258 46.3211C61.7555 46.1091 60.3335 46.3052 59.6139 46.8336C59.2096 47.1307 59.0842 47.4751 59.0503 47.712C58.96 48.3398 59.4135 49.0341 59.6924 49.3921C60.4811 50.4057 61.6331 51.1023 62.7733 51.2557C62.9385 51.2781 63.103 51.2891 63.2667 51.2887C65.168 51.2887 66.8971 49.8529 67.0495 48.7932C67.2399 47.466 65.253 46.5807 63.3258 46.3211ZM115.348 46.3631C115.198 45.3228 113.289 45.0262 111.477 45.2705C109.668 45.5148 107.913 46.3069 108.06 47.3495C108.177 48.1603 109.687 49.5444 111.474 49.5444C111.625 49.5444 111.778 49.5341 111.931 49.5137C113.124 49.3535 113.999 48.6188 114.415 48.1955C115.048 47.55 115.415 46.8307 115.348 46.3631Z" fill="white"/>
<path d="M145.196 90.9235C144.532 88.9752 142.393 88.3485 138.84 89.0598C128.29 91.1712 124.512 89.7087 123.272 88.8229C131.472 76.7093 138.218 62.0661 141.857 48.4041C143.581 41.9326 144.533 35.9223 144.611 31.0235C144.697 25.6468 143.753 21.6956 141.805 19.282C133.952 9.55187 122.427 4.33256 108.476 4.18937C98.8845 4.08483 90.781 6.46494 89.2101 7.13426C85.9019 6.33653 82.2955 5.84676 78.3691 5.78426C71.1691 5.67119 64.9453 7.34278 59.7925 10.7502C57.5543 9.94222 51.7699 8.01665 44.6959 6.91153C32.4662 5.00244 22.7478 6.44903 15.8127 11.2132C7.53746 16.8985 3.71715 27.061 4.45719 41.4178C4.70621 46.2479 7.5445 61.107 12.0234 75.3371C17.9191 94.0666 24.3281 104.669 31.0711 106.851C31.8603 107.106 32.7703 107.284 33.774 107.284C36.2338 107.284 39.2496 106.209 42.3873 102.551C46.2144 98.0994 50.1733 93.7555 54.2589 89.5252C56.9097 90.9047 59.8218 91.6752 62.8002 91.7524C62.8064 91.8282 62.8132 91.9036 62.8207 91.9786C62.308 92.5714 61.806 93.1729 61.3148 93.7826C59.2511 96.3229 58.8216 96.8519 52.1789 98.178C50.2892 98.5564 45.2707 99.5593 45.1968 102.971C45.1172 106.698 51.1295 108.263 51.8144 108.429C54.2015 109.009 56.5013 109.294 58.6945 109.294C64.0283 109.294 68.7222 107.594 72.4734 104.305C72.358 117.593 72.9293 130.686 74.5746 134.675C75.9222 137.941 79.214 145.922 89.6121 145.922C91.1379 145.922 92.8172 145.75 94.6646 145.366C105.517 143.11 110.229 138.459 112.052 128.205C113.028 122.725 114.702 109.639 115.489 102.619C117.151 103.122 119.29 103.352 121.603 103.352C126.427 103.352 131.992 102.358 135.483 100.787C139.404 99.0212 146.48 94.6882 145.196 90.9235ZM119.353 43.4916C119.317 45.5638 119.023 47.4451 118.711 49.4087C118.376 51.5206 118.029 53.7041 117.942 56.3547C117.855 58.9343 118.188 61.6161 118.509 64.2098C119.158 69.4485 119.824 74.8416 117.245 80.1632C116.818 79.4269 116.436 78.6663 116.103 77.8854C115.782 77.132 115.086 75.9218 114.122 74.2468C110.373 67.7263 101.593 52.457 106.087 46.2263C107.426 44.3718 110.824 42.4649 119.353 43.4916ZM109.015 8.3854C121.515 8.65301 131.403 13.1877 138.404 21.8627C143.774 28.5166 137.861 58.7934 120.744 84.9132C120.572 84.701 120.399 84.4894 120.225 84.2786L120.008 84.0161C124.431 76.9326 123.567 69.924 122.797 63.7104C122.48 61.1604 122.181 58.7519 122.258 56.4894C122.336 54.0916 122.663 52.0348 122.979 50.0462C123.368 47.5956 123.763 45.0598 123.654 42.0706C123.736 41.757 123.769 41.3865 123.726 40.9468C123.448 38.0803 120.073 29.5013 113.194 21.7365C109.431 17.4894 103.944 12.7365 96.4511 9.53085C99.6738 8.88312 104.081 8.27915 109.015 8.3854ZM39.0668 99.874C35.6097 103.905 33.2226 103.132 32.4375 102.879C27.3222 101.224 21.3867 90.7399 16.1537 74.1149C11.6256 59.7297 8.97946 45.2644 8.76969 41.2081C8.10875 28.3797 11.3156 19.4394 18.3017 14.6348C29.6713 6.81665 48.3638 11.4962 55.875 13.8695C55.7672 13.9729 55.6547 14.0695 55.548 14.1746C43.2222 26.2451 43.5146 46.8678 43.5451 48.1286C43.5439 48.6149 43.5861 49.3036 43.6435 50.2507C43.8556 53.7195 44.2506 60.1752 43.1959 67.486C42.2162 74.2797 44.3759 80.9291 49.1203 85.7297C49.607 86.2216 50.1188 86.6896 50.6537 87.132C48.542 89.3252 43.9523 94.1752 39.0668 99.874ZM52.2381 82.8326C48.4142 78.9632 46.6775 73.5814 47.4726 68.0655C48.5859 60.3428 48.1752 53.6166 47.9543 50.003C47.9232 49.4973 47.8957 49.0541 47.8798 48.7047C49.6804 47.1564 58.0248 42.8212 63.9755 44.1434C66.6908 44.7462 68.3455 46.5394 69.0334 49.6235C72.5935 65.5911 69.5045 72.2462 67.0224 77.5945C66.5109 78.6962 66.0275 79.7377 65.615 80.8149L65.2951 81.6479C64.4853 83.7536 63.7318 85.7115 63.2648 87.5706C59.1996 87.5593 55.2451 85.8752 52.2381 82.832M52.8621 104.366C51.675 104.079 50.6074 103.579 49.981 103.165C50.5043 102.926 51.4353 102.601 53.0502 102.279C60.8648 100.719 62.0718 99.6178 64.7074 96.3729C65.3115 95.6286 65.9964 94.7854 66.9451 93.7581L66.9463 93.757C68.3589 92.2229 69.0052 92.4831 70.1771 92.9547C71.1269 93.3354 72.0521 94.4899 72.4271 95.7604C72.6047 96.3604 72.8039 97.499 72.1517 98.3854C66.6463 105.86 58.6236 105.764 52.8621 104.366ZM93.7599 141.271C84.1998 143.257 80.8148 138.527 78.5841 133.119C77.1445 129.629 76.4367 113.887 76.9388 96.5019C76.9453 96.2706 76.9113 96.0473 76.8457 95.8371C76.787 95.422 76.6978 95.0114 76.5785 94.6087C75.832 92.0791 74.0127 89.9632 71.83 89.086C70.9629 88.7377 69.3714 88.0985 67.4589 88.5729C67.8668 86.9433 68.574 85.103 69.341 83.1104L69.6627 82.2723C70.0248 81.3274 70.4795 80.3485 70.9599 79.3121C73.5574 73.7166 77.1146 66.0524 73.2539 48.7382C71.8078 42.253 66.9785 39.086 59.6578 39.8218C55.2691 40.2621 51.2537 41.9791 49.2509 42.9638C48.8203 43.1752 48.4265 43.3797 48.0586 43.5786C48.6175 37.0445 50.7293 24.8331 58.6289 17.107C63.6029 12.2434 70.2269 9.84108 78.2976 9.97062C94.2 10.2229 104.398 18.1365 110.153 24.7314C115.112 30.4138 117.797 36.1382 118.869 39.2257C110.81 38.4309 105.328 39.9735 102.55 43.8257C96.5045 52.2053 105.857 68.4689 110.351 76.2854C111.176 77.7178 111.887 78.9558 112.111 79.482C113.575 82.9218 115.469 85.2184 116.853 86.8945C117.277 87.4081 117.688 87.9064 118.001 88.3416C115.56 89.024 111.176 90.6007 111.575 98.482C111.253 102.437 108.961 120.951 107.797 127.493C106.26 136.135 102.981 139.353 93.7599 141.271ZM133.665 96.9894C131.169 98.1127 126.991 98.9553 123.023 99.1365C118.641 99.3354 116.409 98.6604 115.884 98.2451C115.638 93.3337 117.523 92.8206 119.518 92.2774C119.832 92.1922 120.138 92.1087 120.433 92.0087C120.616 92.1538 120.818 92.2969 121.038 92.4382C124.56 94.6928 130.843 94.936 139.714 93.1604L139.811 93.1416C138.615 94.2263 136.567 95.682 133.665 96.9894Z" fill="white"/>
</g>
</g>
<defs>
<clipPath id="clip0_216_330">
<rect width="150" height="150" fill="white"/>
</clipPath>
<clipPath id="clip1_216_330">
<rect width="150" height="150" fill="white"/>
</clipPath>
</defs>
</svg>
