<svg width="150" height="150" viewBox="0 0 150 150" fill="none" xmlns="http://www.w3.org/2000/svg">
<g clip-path="url(#clip0_89_1328)">
<path d="M73.7087 0.283303C73.4368 0.441506 72.2989 2.07394 71.1774 3.91261C68.3649 8.52982 68.3344 8.53216 64.5563 4.55715C62.0977 1.96964 61.5036 1.4962 60.7125 1.50206C60.1969 1.5044 59.5465 1.68018 59.2653 1.89112C58.984 2.10206 58.1918 3.78019 57.5028 5.62121C55.9254 9.83998 55.8504 9.97475 54.9762 10.1447C54.4371 10.2455 53.4024 9.66772 50.918 7.88412C49.084 6.56575 47.2851 5.48762 46.9207 5.48762C45.4078 5.48762 44.9812 6.31497 44.2605 10.6439C43.3465 16.1482 43.3769 16.1295 38.4152 13.8759C36.4113 12.9666 34.5128 12.2236 34.1929 12.2236C33.873 12.2236 33.2648 12.5669 32.8452 12.9877C32.0812 13.7517 32.08 13.7552 32.2886 17.9635L32.4972 22.1764L31.7003 22.6029C30.9949 22.9803 30.5085 22.9346 27.3831 22.1951C23.305 21.2318 22.4425 21.2576 21.6175 22.3709L21.0128 23.183L21.8237 26.6565C22.269 28.5666 22.6968 30.4065 22.7776 30.7428C22.8561 31.0791 22.719 31.617 22.4729 31.9381C22.0651 32.4631 21.6327 32.5123 17.8557 32.4537C11.4667 32.353 11.1045 32.9014 13.7424 38.6647C14.5838 40.4928 15.2717 42.1569 15.2717 42.3561C15.2717 43.4085 14.4315 43.7905 10.8256 44.38C8.80766 44.7081 7.05452 44.9776 6.92796 44.9776C6.80257 44.9776 6.42405 45.253 6.08772 45.5893C4.98967 46.6862 5.30139 47.7175 7.79046 51.2308C10.8913 55.6077 10.8866 55.6253 5.76311 57.5835C-0.0623007 59.8125 -0.18066 60.3609 4.2549 64.5679C8.38578 68.4867 8.39164 68.4293 3.71467 71.3695C0.170904 73.5938 0.116997 73.6477 0.0267625 74.8547C-0.0822223 76.3231 -0.0564412 76.3488 4.17287 78.9328C8.35648 81.4875 8.35648 81.5649 4.25139 85.4485C-0.164254 89.6251 -0.0283159 90.2344 5.80178 92.4341C10.8959 94.3559 10.903 94.3794 7.79632 98.7552C6.03616 101.236 5.47483 102.271 5.47483 103.036C5.47483 104.469 6.22132 104.835 10.678 105.584C14.435 106.217 15.2717 106.588 15.2717 107.624C15.2717 107.837 14.5827 109.513 13.7401 111.347C11.1198 117.054 11.4186 117.529 17.619 117.529C23.3964 117.529 23.2429 117.353 21.9983 122.561C21.0608 126.487 21.0456 127.239 21.8952 128.086C22.5444 128.738 23.7702 128.665 27.6023 127.747C30.5308 127.049 31.0441 127.001 31.7226 127.363L32.496 127.778L32.2886 131.99C32.08 136.2 32.0812 136.203 32.8452 136.968C33.2648 137.39 33.8812 137.732 34.2105 137.732C34.5398 137.732 36.4406 136.994 38.4339 136.087C43.3793 133.841 43.3488 133.823 44.2617 139.309C44.9847 143.658 45.4066 144.466 46.95 144.466C47.3332 144.466 49.0945 143.434 50.8641 142.171C53.9742 139.953 54.7805 139.605 55.609 140.132C55.8223 140.267 56.652 142.089 57.4512 144.181C58.6266 147.257 59.0567 148.06 59.7118 148.371C60.9563 148.969 61.7274 148.489 64.6547 145.301C68.1891 141.45 68.3344 141.469 71.2196 146.145C74.4071 151.308 75.2321 151.296 78.4993 146.041C81.3142 141.512 81.2814 141.515 85.0865 145.49C87.6142 148.126 88.1521 148.548 89.0041 148.548C89.5478 148.548 90.1982 148.343 90.4455 148.094C90.6963 147.844 91.5236 146.001 92.283 143.997C93.0435 141.993 93.831 140.247 94.0349 140.118C94.84 139.607 95.6732 139.966 98.7787 142.171C100.607 143.469 102.327 144.468 102.736 144.468C104.255 144.468 104.803 143.39 105.434 139.153C105.973 135.542 106.083 135.195 106.793 134.835C107.492 134.481 107.911 134.601 111.188 136.089C113.181 136.991 115.082 137.732 115.411 137.732C115.74 137.732 116.367 137.378 116.799 136.944L117.586 136.159L117.371 132.119C117.163 128.263 117.183 128.055 117.797 127.498C118.43 126.926 118.496 126.928 122.033 127.737C126.318 128.715 127.117 128.741 127.922 127.936C128.709 127.151 128.7 126.978 127.625 122.44C126.417 117.347 126.256 117.53 132.054 117.53C136.008 117.53 136.449 117.472 136.953 116.917C137.794 115.988 137.594 114.922 135.903 111.317C135.048 109.5 134.356 107.848 134.362 107.643C134.39 106.572 135.232 106.205 139.125 105.572C141.508 105.186 143.289 104.74 143.612 104.447C144.694 103.471 144.297 102.199 141.828 98.7364C138.732 94.397 138.746 94.3559 143.702 92.529C149.636 90.3423 149.806 89.6133 145.364 85.3922C141.251 81.484 141.249 81.5051 145.755 78.7395C151.202 75.3961 151.21 74.6426 145.851 71.3156C141.242 68.4562 141.245 68.4961 145.376 64.5738C149.806 60.3632 149.686 59.8125 143.859 57.5835C138.716 55.616 138.7 55.5679 141.825 51.2788C143.686 48.7241 144.148 47.8769 144.148 47.0015C144.148 45.471 143.461 45.1288 138.95 44.3999C135.181 43.7905 134.351 43.4214 134.351 42.3491C134.351 42.1452 135.04 40.5046 135.883 38.701C137.53 35.1702 137.762 33.7557 136.83 32.9119C136.328 32.4584 135.658 32.3928 132.064 32.4526C128.304 32.5159 127.824 32.4619 127.302 31.9381C126.733 31.3662 126.74 31.2854 127.628 27.5729C128.719 23.026 128.724 22.9146 127.827 22.0721C126.917 21.2166 126.348 21.2307 122.172 22.2139C119.128 22.931 118.624 22.9791 117.933 22.6088L117.148 22.1869L117.365 17.9892L117.583 13.7939L116.798 13.0087C116.365 12.5751 115.753 12.2236 115.435 12.2236C115.118 12.2236 113.227 12.9736 111.236 13.8888C107.91 15.4193 107.553 15.5213 106.833 15.1451C106.116 14.7701 105.996 14.3986 105.383 10.658C104.677 6.3302 104.238 5.48762 102.702 5.48762C102.338 5.48762 100.531 6.57161 98.6873 7.89583C95.6592 10.0708 95.2537 10.2771 94.499 10.0134C93.8744 9.79545 93.5111 9.32201 93.0681 8.13958C92.74 7.27005 92.1107 5.59426 91.6689 4.41652C90.7759 2.03995 90.2779 1.50792 88.9408 1.50792C88.1943 1.50792 87.5193 2.04464 85.097 4.55949C81.2884 8.51459 81.2755 8.51341 78.4759 3.92082C77.3568 2.08565 76.1872 0.447366 75.8767 0.280959C75.177 -0.0940427 74.3532 -0.0940427 73.7087 0.283303ZM77.1774 14.1091C80.4939 16.4693 78.7314 22.0193 74.6649 22.0193C70.718 22.0193 68.7305 17.265 71.5477 14.5662C73.1392 13.0427 75.4185 12.8564 77.1774 14.1091ZM73.0091 28.7658C75.1829 29.592 76.0747 29.0963 81.0388 24.3127L84.7677 20.715L86.3462 20.926C91.2974 21.5822 101.144 25.9065 106.801 29.9096C112 33.5893 118.909 41.0823 121.854 46.2339L122.483 47.3378L119.694 53.6238C118.159 57.0808 116.903 60.2718 116.903 60.7171C116.903 61.7461 117.578 63.3738 118.227 63.9117C118.501 64.1402 121.107 65.3941 124.015 66.6984L129.3 69.0715L129.509 70.4168C129.778 72.1688 129.814 76.4719 129.57 77.6942L129.379 78.6504H126.361C122.861 78.6504 123.132 78.3375 122.942 82.6301C122.803 85.7426 122.051 87.463 120.34 88.5774C117.555 90.395 112.953 90.0657 111 87.9094C110.701 87.5766 110.119 85.9114 109.705 84.2063C108.498 79.2211 106.878 76.425 103.62 73.7004C102.591 72.8414 101.751 72.0387 101.751 71.9168C101.751 71.7973 102.881 70.8445 104.264 69.8039C109.301 66.007 112.198 61.5867 112.514 57.2097C113.123 48.8589 106.47 41.0764 96.5744 38.5534C94.2283 37.9557 93.2263 37.937 64.2024 37.937C47.7293 37.937 34.2492 37.8292 34.2492 37.6979C34.2492 37.3897 37.9113 33.8366 40.0675 32.0541C45.9902 27.158 53.6824 23.3061 61.65 21.2494L64.404 20.5346L68.318 24.5037C70.4731 26.6869 72.5837 28.6053 73.0091 28.7658ZM23.7163 54.3046C25.5198 55.4859 26.2593 58.4531 25.1929 60.2367C23.5464 62.9976 19.3733 63.1136 17.7245 60.4453C15.3268 56.5675 19.9452 51.8331 23.7163 54.3046ZM129.973 54.457C134.691 57.3328 131.035 64.4097 125.984 62.175C122.612 60.6832 122.503 56.0742 125.802 54.3937C127.178 53.6906 128.759 53.7152 129.974 54.4558M37.6183 72.0703V89.6719H22.0558L21.4393 86.9942C20.2253 81.7207 19.7143 76.2645 20.0202 71.7961L20.2335 68.6566L25.5831 66.2578C28.9394 64.7543 31.098 63.607 31.3757 63.1816C32.5921 61.3254 32.4773 60 30.7687 56.2288L29.9718 54.4687H37.616V72.0703M82.4157 55.2327C85.7474 56.0999 87.5076 57.8636 87.5123 60.3363C87.5146 62.1527 86.6158 63.2894 84.3833 64.2972C82.8036 65.0121 82.5529 65.0297 72.5907 65.1269L62.4118 65.2254V54.7722H71.5313C78.654 54.7722 81.0376 54.873 82.4157 55.2327ZM78.9775 80.4914C80.6298 80.9508 82.5822 82.3852 83.5829 83.8758C84.6353 85.4426 85.2505 87.4805 86.7084 94.2306C87.9388 99.9376 88.7322 101.801 90.9505 104.229C93.6986 107.236 93.0599 107.119 106.787 107.119C113.362 107.119 118.738 107.224 118.738 107.353C118.738 107.584 114.211 112.936 114.015 112.936C113.959 112.936 111.594 112.442 108.761 111.836C100.758 110.127 100.47 110.327 98.6334 118.904L97.4521 124.415L96.3857 124.94C94.6068 125.819 88.8236 127.626 85.8271 128.244C80.8724 129.264 75.4817 129.606 70.7438 129.206C62.6661 128.521 51.9703 125.387 51.552 123.581C51.4641 123.198 50.925 120.719 50.359 118.069C49.7906 115.42 49.1004 112.908 48.8238 112.486C47.4996 110.466 46.1074 110.342 39.9797 111.696C37.6593 112.212 35.6343 112.629 35.4796 112.629C35.189 112.629 30.8824 107.65 30.8824 107.315C30.8824 107.209 41.1105 107.087 53.6121 107.045L76.3407 106.968L76.4228 98.8935C76.4814 93.1923 76.4017 90.6938 76.1532 90.3973C75.879 90.0645 74.413 89.9778 69.1091 89.9778H62.4118V80.1809L70.1427 80.1821C74.3919 80.1844 78.3693 80.3227 78.9775 80.4914ZM43.9547 117.211C47.5687 119.414 45.8355 125.185 41.5605 125.18C37.1777 125.18 35.5523 119.461 39.2871 117.181C40.5234 116.427 42.6949 116.442 43.9547 117.211ZM110.142 117.453C111.914 118.751 112.504 121.452 111.407 123.253C108.524 127.981 101.315 124.222 103.723 119.247C104.906 116.803 108.053 115.921 110.142 117.453Z" fill="#E43717"/>
</g>
<defs>
<clipPath id="clip0_89_1328">
<rect width="150" height="150" fill="white"/>
</clipPath>
</defs>
</svg>
