<svg width="150" height="150" viewBox="0 0 150 150" fill="none" xmlns="http://www.w3.org/2000/svg">
<g clip-path="url(#clip0_89_1326)">
<path d="M73.78 0.283303C73.5079 0.441506 72.3689 2.07394 71.2463 3.91261C68.4311 8.52982 68.4006 8.53216 64.6188 4.55715C62.1578 1.96964 61.5631 1.4962 60.7713 1.50206C60.2551 1.5044 59.6041 1.68018 59.3226 1.89112C59.0411 2.10206 58.2481 3.78019 57.5584 5.62121C55.9795 9.83998 55.9044 9.97475 55.0294 10.1447C54.4898 10.2455 53.454 9.66772 50.9672 7.88412C49.1315 6.56575 47.3309 5.48762 46.9661 5.48762C45.4517 5.48762 45.0247 6.31497 44.3033 10.6439C43.3884 16.1482 43.4189 16.1295 38.4524 13.8759C36.4465 12.9666 34.5462 12.2236 34.226 12.2236C33.9058 12.2236 33.297 12.5669 32.877 12.9877C32.1122 13.7517 32.111 13.7552 32.3198 17.9635L32.5286 22.1764L31.731 22.6029C31.0248 22.9803 30.538 22.9346 27.4096 22.1951C23.3275 21.2318 22.4642 21.2576 21.6384 22.3709L21.0331 23.183L21.8448 26.6565C22.2906 28.5666 22.7187 30.4065 22.7997 30.7428C22.8783 31.0791 22.741 31.617 22.4947 31.9381C22.0865 32.4631 21.6536 32.5123 17.873 32.4537C11.4777 32.353 11.1153 32.9014 13.7557 38.6647C14.598 40.4928 15.2865 42.1569 15.2865 42.3561C15.2865 43.4085 14.4455 43.7905 10.8361 44.38C8.81618 44.7081 7.06135 44.9776 6.93466 44.9776C6.80915 44.9776 6.43027 45.253 6.09361 45.5893C4.9945 46.6862 5.30652 47.7175 7.798 51.2308C10.9018 55.6077 10.8971 55.6253 5.76869 57.5835C-0.062361 59.8125 -0.180835 60.3609 4.25902 64.5679C8.39389 68.4867 8.39976 68.4293 3.71826 71.3695C0.171069 73.5938 0.11711 73.6477 0.0267884 74.8547C-0.0823019 76.3231 -0.0564958 76.3488 4.17691 78.9328C8.36457 81.4875 8.36457 81.5649 4.2555 85.4485C-0.164413 89.6251 -0.0283432 90.2344 5.8074 92.4341C10.9065 94.3559 10.9135 94.3794 7.80387 98.7552C6.042 101.236 5.48013 102.271 5.48013 103.036C5.48013 104.469 6.22734 104.835 10.6883 105.584C14.449 106.217 15.2865 106.588 15.2865 107.624C15.2865 107.837 14.5968 109.513 13.7534 111.347C11.1305 117.054 11.4297 117.529 17.6361 117.529C23.419 117.529 23.2654 117.353 22.0196 122.561C21.0812 126.487 21.066 127.239 21.9164 128.086C22.5662 128.738 23.7932 128.665 27.629 127.747C30.5603 127.049 31.0741 127.001 31.7533 127.363L32.5275 127.778L32.3198 131.99C32.111 136.2 32.1122 136.203 32.877 136.968C33.297 137.39 33.914 137.732 34.2436 137.732C34.5732 137.732 36.4758 136.994 38.4711 136.087C43.4212 133.841 43.3907 133.823 44.3045 139.309C45.0283 143.658 45.4506 144.466 46.9954 144.466C47.379 144.466 49.142 143.434 50.9133 142.171C54.0265 139.953 54.8335 139.605 55.6628 140.132C55.8763 140.267 56.7068 142.089 57.5068 144.181C58.6833 147.257 59.1138 148.06 59.7695 148.371C61.0153 148.969 61.7871 148.489 64.7173 145.301C68.2551 141.45 68.4006 141.469 71.2885 146.145C74.4791 151.308 75.3049 151.296 78.5753 146.041C81.3928 141.512 81.36 141.515 85.1688 145.49C87.699 148.126 88.2374 148.548 89.0902 148.548C89.6344 148.548 90.2855 148.343 90.533 148.094C90.784 147.844 91.6121 146.001 92.3722 143.997C93.1335 141.993 93.9218 140.247 94.1259 140.118C94.9318 139.607 95.7658 139.966 98.8743 142.171C100.704 143.469 102.426 144.468 102.836 144.468C104.356 144.468 104.905 143.39 105.536 139.153C106.075 135.542 106.186 135.195 106.896 134.835C107.596 134.481 108.016 134.601 111.295 136.089C113.291 136.991 115.193 137.732 115.523 137.732C115.852 137.732 116.48 137.378 116.912 136.944L117.7 136.159L117.484 132.119C117.276 128.263 117.296 128.055 117.911 127.498C118.545 126.926 118.61 126.928 122.152 127.737C126.44 128.715 127.24 128.741 128.046 127.936C128.833 127.151 128.825 126.978 127.748 122.44C126.54 117.347 126.378 117.53 132.182 117.53C136.14 117.53 136.581 117.472 137.085 116.917C137.927 115.988 137.727 114.922 136.034 111.317C135.179 109.5 134.486 107.848 134.492 107.643C134.52 106.572 135.363 106.205 139.26 105.572C141.645 105.186 143.428 104.74 143.751 104.447C144.834 103.471 144.436 102.199 141.965 98.7364C138.866 94.397 138.88 94.3559 143.841 92.529C149.781 90.3423 149.951 89.6133 145.505 85.3922C141.388 81.484 141.385 81.5051 145.896 78.7395C151.348 75.3961 151.356 74.6426 145.992 71.3156C141.378 68.4562 141.382 68.4961 145.517 64.5738C149.951 60.3632 149.831 59.8125 143.998 57.5835C138.851 55.616 138.834 55.5679 141.963 51.2788C143.825 48.7241 144.287 47.8769 144.287 47.0015C144.287 45.471 143.6 45.1288 139.084 44.3999C135.312 43.7905 134.481 43.4214 134.481 42.3491C134.481 42.1452 135.171 40.5046 136.014 38.701C137.663 35.1702 137.896 33.7557 136.962 32.9119C136.46 32.4584 135.789 32.3928 132.191 32.4526C128.428 32.5159 127.947 32.4619 127.425 31.9381C126.855 31.3662 126.862 31.2854 127.752 27.5729C128.844 23.026 128.848 22.9146 127.951 22.0721C127.039 21.2166 126.471 21.2307 122.29 22.2139C119.244 22.931 118.739 22.9791 118.047 22.6088L117.261 22.1869L117.478 17.9892L117.696 13.7939L116.911 13.0087C116.478 12.5751 115.865 12.2236 115.546 12.2236C115.23 12.2236 113.336 12.9736 111.343 13.8888C108.014 15.4193 107.657 15.5213 106.936 15.1451C106.218 14.7701 106.099 14.3986 105.485 10.658C104.778 6.3302 104.339 5.48762 102.802 5.48762C102.437 5.48762 100.628 6.57161 98.7828 7.89583C95.7517 10.0708 95.3458 10.2771 94.5904 10.0134C93.9652 9.79545 93.6016 9.32201 93.1582 8.13958C92.8297 7.27005 92.1998 5.59426 91.7576 4.41652C90.8638 2.03995 90.3652 1.50792 89.0268 1.50792C88.2796 1.50792 87.604 2.04464 85.1793 4.55949C81.367 8.51459 81.3541 8.51341 78.5518 3.92082C77.4316 2.08565 76.2609 0.447366 75.9501 0.280959C75.2498 -0.0940427 74.4251 -0.0940427 73.78 0.283303ZM77.2521 14.1091C80.5717 16.4693 78.8075 22.0193 74.7372 22.0193C70.7865 22.0193 68.797 17.265 71.617 14.5662C73.2099 13.0427 75.4914 12.8564 77.2521 14.1091ZM73.0797 28.7658C75.2556 29.592 76.1483 29.0963 81.1172 24.3127L84.8497 20.715L86.4298 20.926C91.3857 21.5822 101.241 25.9065 106.905 29.9096C112.108 33.5893 119.024 41.0823 121.972 46.2339L122.602 47.3378L119.81 53.6238C118.274 57.0808 117.016 60.2718 117.016 60.7171C117.016 61.7461 117.692 63.3738 118.342 63.9117C118.616 64.1402 121.224 65.3941 124.135 66.6984L129.425 69.0715L129.634 70.4168C129.904 72.1688 129.939 76.4719 129.695 77.6942L129.504 78.6504H126.483C122.98 78.6504 123.251 78.3375 123.061 82.6301C122.922 85.7426 122.169 87.463 120.457 88.5774C117.668 90.395 113.062 90.0657 111.108 87.9094C110.808 87.5766 110.226 85.9114 109.811 84.2063C108.603 79.2211 106.981 76.425 103.72 73.7004C102.69 72.8414 101.849 72.0387 101.849 71.9168C101.849 71.7973 102.981 70.8445 104.365 69.8039C109.407 66.007 112.306 61.5867 112.623 57.2097C113.232 48.8589 106.573 41.0764 96.6678 38.5534C94.3195 37.9557 93.3165 37.937 64.2645 37.937C47.7755 37.937 34.2823 37.8292 34.2823 37.6979C34.2823 37.3897 37.948 33.8366 40.1063 32.0541C46.0347 27.158 53.7344 23.3061 61.7097 21.2494L64.4663 20.5346L68.3841 24.5037C70.5413 26.6869 72.6539 28.6053 73.0797 28.7658ZM23.7393 54.3046C25.5445 55.4859 26.2847 58.4531 25.2172 60.2367C23.5692 62.9976 19.3921 63.1136 17.7416 60.4453C15.3417 56.5675 19.9645 51.8331 23.7393 54.3046ZM130.099 54.457C134.821 57.3328 131.161 64.4097 126.106 62.175C122.731 60.6832 122.622 56.0742 125.924 54.3937C127.301 53.6906 128.883 53.7152 130.1 54.4558M37.6547 72.0703V89.6719H22.0771L21.4601 86.9942C20.2448 81.7207 19.7334 76.2645 20.0396 71.7961L20.2531 68.6566L25.6079 66.2578C28.9674 64.7543 31.1281 63.607 31.4061 63.1816C32.6237 61.3254 32.5087 60 30.7984 56.2288L30.0008 54.4687H37.6524V72.0703M82.4955 55.2327C85.8304 56.0999 87.5922 57.8636 87.5969 60.3363C87.5993 62.1527 86.6996 63.2894 84.465 64.2972C82.8838 65.0121 82.6327 65.0297 72.6609 65.1269L62.4721 65.2254V54.7722H71.6005C78.7301 54.7722 81.116 54.873 82.4955 55.2327ZM79.0539 80.4914C80.7078 80.9508 82.662 82.3852 83.6638 83.8758C84.7172 85.4426 85.333 87.4805 86.7922 94.2306C88.0239 99.9376 88.818 101.801 91.0385 104.229C93.7892 107.236 93.15 107.119 106.891 107.119C113.471 107.119 118.853 107.224 118.853 107.353C118.853 107.584 114.322 112.936 114.126 112.936C114.069 112.936 111.702 112.442 108.866 111.836C100.855 110.127 100.567 110.327 98.7288 118.904L97.5464 124.415L96.479 124.94C94.6983 125.819 88.9095 127.626 85.9101 128.244C80.9506 129.264 75.5548 129.606 70.8123 129.206C62.7267 128.521 52.0206 125.387 51.6018 123.581C51.5139 123.198 50.9743 120.719 50.4077 118.069C49.8388 115.42 49.1479 112.908 48.8711 112.486C47.5456 110.466 46.152 110.342 40.0183 111.696C37.6958 112.212 35.6688 112.629 35.514 112.629C35.223 112.629 30.9122 107.65 30.9122 107.315C30.9122 107.209 41.1503 107.087 53.664 107.045L76.4146 106.968L76.4967 98.8935C76.5553 93.1923 76.4756 90.6938 76.2269 90.3973C75.9524 90.0645 74.485 89.9778 69.1759 89.9778H62.4721V80.1809L70.2105 80.1821C74.4639 80.1844 78.4451 80.3227 79.0539 80.4914ZM43.9972 117.211C47.6148 119.414 45.8799 125.185 41.6007 125.18C37.2137 125.18 35.5867 119.461 39.3251 117.181C40.5626 116.427 42.7362 116.442 43.9972 117.211ZM110.249 117.453C112.023 118.751 112.613 121.452 111.515 123.253C108.629 127.981 101.413 124.222 103.823 119.247C105.008 116.803 108.157 115.921 110.249 117.453Z" fill="#4D4D4D"/>
</g>
<defs>
<clipPath id="clip0_89_1326">
<rect width="150" height="150" fill="white"/>
</clipPath>
</defs>
</svg>
